<svg xmlns="http://www.w3.org/2000/svg" width="30" height="34.628" viewBox="0 0 30 34.628">
  <g id="Group_633" data-name="Group 633" transform="translate(-25 -159.372)">
    <path id="Path_99" data-name="Path 99" d="M0-1.372,5.628-7V16.706L0,22.334Z" transform="translate(44.336 166.372)" fill="#0674f9"/>
    <path id="Path_98" data-name="Path 98" d="M5.628,0H24.922L19.294,5.628H0Z" transform="translate(25.041 159.372)" fill="#0674f9"/>
    <line id="Line_69" data-name="Line 69" y2="23.706" transform="translate(29.5 165)" fill="none" stroke="#0674f9" stroke-width="1"/>
    <line id="Line_70" data-name="Line 70" y2="23.706" transform="translate(32.5 165)" fill="none" stroke="#0674f9" stroke-width="1"/>
    <line id="Line_71" data-name="Line 71" y2="23.706" transform="translate(35.5 165)" fill="none" stroke="#0674f9" stroke-width="1"/>
    <line id="Line_72" data-name="Line 72" y2="23.706" transform="translate(41.5 165)" fill="none" stroke="#0674f9" stroke-width="1"/>
    <line id="Line_73" data-name="Line 73" x1="19.459" transform="translate(25.041 167.855)" fill="none" stroke="#0674f9" stroke-width="1"/>
    <line id="Line_74" data-name="Line 74" x1="19.459" transform="translate(25.041 170.855)" fill="none" stroke="#0674f9" stroke-width="1"/>
    <line id="Line_75" data-name="Line 75" x1="19.459" transform="translate(25.041 173.855)" fill="none" stroke="#0674f9" stroke-width="1"/>
    <line id="Line_76" data-name="Line 76" x1="19.459" transform="translate(25.041 176.855)" fill="none" stroke="#0674f9" stroke-width="1"/>
    <line id="Line_77" data-name="Line 77" x1="19.459" transform="translate(25.041 179.855)" fill="none" stroke="#0674f9" stroke-width="1"/>
    <line id="Line_81" data-name="Line 81" y2="23.706" transform="translate(25.5 165)" fill="none" stroke="#0674f9" stroke-width="1"/>
    <line id="Line_82" data-name="Line 82" y2="23.706" transform="translate(38.5 165)" fill="none" stroke="#0674f9" stroke-width="1"/>
    <line id="Line_83" data-name="Line 83" x1="19.459" transform="translate(25.041 182.855)" fill="none" stroke="#0674f9" stroke-width="1"/>
    <line id="Line_84" data-name="Line 84" x1="19.459" transform="translate(25.041 185.855)" fill="none" stroke="#0674f9" stroke-width="1"/>
    <line id="Line_131" data-name="Line 131" x1="19.459" transform="translate(25.041 188.711)" fill="none" stroke="#0674f9" stroke-width="1"/>
    <g id="Group_259" data-name="Group 259" transform="translate(1 18)">
      <circle id="Ellipse_30" data-name="Ellipse 30" cx="9.5" cy="9.5" r="9.5" transform="translate(35 157)" fill="#0674f9"/>
      <line id="Line_79" data-name="Line 79" y2="13.147" transform="translate(44.682 159.744)" fill="none" stroke="#4b4f57" stroke-width="2"/>
      <line id="Line_80" data-name="Line 80" y2="13.146" transform="translate(51.256 166.317) rotate(90)" fill="none" stroke="#4b4f57" stroke-width="2"/>
    </g>
  </g>
</svg>
