<svg xmlns="http://www.w3.org/2000/svg" width="32" height="32" viewBox="0 0 32 32">
  <g id="Group_887" data-name="Group 887" transform="translate(-676 -466)">
    <rect id="Rectangle_728" data-name="Rectangle 728" width="32" height="32" transform="translate(676 466)" fill="#fff"/>
    <path id="Union_123" data-name="Union 123" d="M2.633,11.056V8.95H1.053V7.371H0V0H11.056V7.371H10V8.95H8.424v2.106Z" transform="translate(678.969 468.973)" fill="#18ce00"/>
    <path id="Union_124" data-name="Union 124" d="M2.633,11.056V8.95H1.053V7.371H0V0H11.056V7.371H10V8.95H8.424v2.106Z" transform="translate(693.994 483.973)" fill="#afafaf"/>
    <path id="Union_125" data-name="Union 125" d="M2.633,11.056V8.95H1.053V7.371H0V0H11.056V7.371H10V8.95H8.424v2.106Z" transform="translate(678.969 483.973)" fill="#ff0219"/>
    <path id="Union_126" data-name="Union 126" d="M2.633,11.056V8.95H1.053V7.371H0V0H11.056V7.371H10V8.95H8.424v2.106Z" transform="translate(693.994 468.973)" fill="#ebd02e"/>
  </g>
</svg>
