<svg width="146" height="146" viewBox="0 0 146 146" fill="none" xmlns="http://www.w3.org/2000/svg">
<path d="M73.0023 85.1667C86.4412 85.1667 97.3356 74.2723 97.3356 60.8333C97.3356 47.3944 86.4412 36.5 73.0023 36.5C59.5633 36.5 48.6689 47.3944 48.6689 60.8333C48.6689 74.2723 59.5633 85.1667 73.0023 85.1667Z" stroke="#09BD7C" stroke-width="4" stroke-linecap="round" stroke-linejoin="round"/>
<path d="M41.0625 97.3333C46.1964 101.793 52.2064 105.129 58.7063 107.127C65.2062 109.126 72.0522 109.743 78.8047 108.938C85.5571 108.134 92.0666 105.925 97.9149 102.456C103.763 98.9858 108.821 94.331 112.764 88.7903C116.706 83.2495 119.446 76.9454 120.807 70.2828C122.168 63.6203 122.121 56.7467 120.668 50.1035C119.215 43.4604 116.388 37.1947 112.369 31.709C108.351 26.2232 103.229 21.6387 97.3333 18.25" stroke="#09BD7C" stroke-width="4" stroke-linecap="round" stroke-linejoin="round"/>
<path d="M73 109.5V133.833" stroke="#09BD7C" stroke-width="4" stroke-linecap="round" stroke-linejoin="round"/>
<path d="M48.6689 133.834H97.3356" stroke="#09BD7C" stroke-width="4" stroke-linecap="round" stroke-linejoin="round"/>
</svg>
