<svg width="22" height="22" viewBox="0 0 22 22" fill="none" xmlns="http://www.w3.org/2000/svg">
<path d="M10.2583 19.9473H3.10535C2.54698 19.9473 2.01147 19.7255 1.61664 19.3307C1.22181 18.9358 1 18.4003 1 17.8419V5.20984C1 4.65147 1.22181 4.11596 1.61664 3.72113C2.01147 3.32631 2.54698 3.10449 3.10535 3.10449H15.7375C16.2958 3.10449 16.8313 3.32631 17.2262 3.72113C17.621 4.11596 17.8428 4.65147 17.8428 5.20984V9.42054" stroke="white" stroke-width="1.5" stroke-linecap="round" stroke-linejoin="round"/>
<path d="M16.7849 20.9995C19.1104 20.9995 20.9956 19.1143 20.9956 16.7888C20.9956 14.4633 19.1104 12.5781 16.7849 12.5781C14.4594 12.5781 12.5742 14.4633 12.5742 16.7888C12.5742 19.1143 14.4594 20.9995 16.7849 20.9995Z" stroke="white" stroke-width="1.5" stroke-linecap="round" stroke-linejoin="round"/>
<path d="M13.6318 1V5.2107" stroke="white" stroke-width="1.5" stroke-linecap="round" stroke-linejoin="round"/>
<path d="M5.21387 1V5.2107" stroke="white" stroke-width="1.5" stroke-linecap="round" stroke-linejoin="round"/>
<path d="M1 9.4209H17.8428" stroke="white" stroke-width="1.5" stroke-linecap="round" stroke-linejoin="round"/>
<path d="M16.7891 15.207V16.7903L17.8417 17.8429" stroke="white" stroke-width="1.5" stroke-linecap="round" stroke-linejoin="round"/>
</svg>
