<svg width="12" height="16" viewBox="0 0 12 16" fill="none" xmlns="http://www.w3.org/2000/svg">
<path d="M7.1 15.2C5.63333 15.2 4.37333 14.9067 3.32 14.32C2.28 13.72 1.48 12.88 0.92 11.8C0.36 10.7067 0.08 9.42 0.08 7.94C0.08 6.46 0.36 5.18 0.92 4.1C1.48 3.02 2.28 2.18667 3.32 1.6C4.37333 0.999999 5.63333 0.699999 7.1 0.699999C8.04667 0.699999 8.94 0.846666 9.78 1.14C10.6333 1.43333 11.3333 1.85333 11.88 2.4L11.04 4.44C10.44 3.93333 9.82667 3.56667 9.2 3.34C8.57333 3.1 7.9 2.98 7.18 2.98C5.75333 2.98 4.66667 3.41333 3.92 4.28C3.17333 5.13333 2.8 6.35333 2.8 7.94C2.8 9.52667 3.17333 10.7533 3.92 11.62C4.66667 12.4867 5.75333 12.92 7.18 12.92C7.9 12.92 8.57333 12.8067 9.2 12.58C9.82667 12.34 10.44 11.9667 11.04 11.46L11.88 13.5C11.3333 14.0333 10.6333 14.4533 9.78 14.76C8.94 15.0533 8.04667 15.2 7.1 15.2Z" fill="#C4C4C4"/>
</svg>
