<svg width="18" height="30" viewBox="0 0 18 30" fill="none" xmlns="http://www.w3.org/2000/svg">
<path d="M7.7045 29.5425V25.079C5.4135 24.5523 3.5965 23.42 2.2535 21.682C0.9105 19.944 0.239 17.8242 0.239 15.3225C0.239 13.7162 0.541833 12.2547 1.1475 10.938C1.7795 9.62133 2.6485 8.51533 3.7545 7.62C4.8605 6.69833 6.17717 6.0795 7.7045 5.7635V0.944499H11.6545V5.5265C12.8132 5.63183 13.906 5.89517 14.933 6.3165C15.96 6.7115 16.8027 7.225 17.461 7.857L16.0785 11.254C15.3412 10.6483 14.5117 10.1743 13.59 9.832C12.6683 9.46333 11.7335 9.279 10.7855 9.279C9.07383 9.279 7.73083 9.832 6.7565 10.938C5.78217 12.044 5.295 13.4792 5.295 15.2435C5.295 17.0342 5.769 18.4957 6.717 19.628C7.69133 20.7603 9.03433 21.3265 10.746 21.3265C11.694 21.3265 12.6288 21.1553 13.5505 20.813C14.4985 20.4443 15.3412 19.9572 16.0785 19.3515L17.461 22.7485C16.7763 23.3542 15.9205 23.8808 14.8935 24.3285C13.8928 24.7762 12.8132 25.0658 11.6545 25.1975V29.5425H7.7045Z" fill="#C4C4C4"/>
</svg>
