<svg xmlns="http://www.w3.org/2000/svg" width="27" height="38" viewBox="0 0 27 38">
  <g id="Group_642" data-name="Group 642" transform="translate(-750 -118)">
    <g id="Rectangle_29" data-name="Rectangle 29" transform="translate(750 118)" fill="#2f2e36" stroke="#4d4d4d" stroke-width="1">
      <path d="M3,0H27a0,0,0,0,1,0,0V38a0,0,0,0,1,0,0H3a3,3,0,0,1-3-3V3A3,3,0,0,1,3,0Z" stroke="none"/>
      <path d="M3,.5H26a.5.5,0,0,1,.5.5V37a.5.5,0,0,1-.5.5H3A2.5,2.5,0,0,1,.5,35V3A2.5,2.5,0,0,1,3,.5Z" fill="none"/>
    </g>
    <line id="Line_13" data-name="Line 13" y2="14" transform="translate(761.5 128.5)" fill="none" stroke="#ddd" stroke-width="2"/>
    <line id="Line_14" data-name="Line 14" y2="14" transform="translate(766.5 128.5)" fill="none" stroke="#ddd" stroke-width="2"/>
  </g>
</svg>
