<svg xmlns="http://www.w3.org/2000/svg" width="20" height="23" viewBox="0 0 20 23">
  <g id="Close-btn" transform="translate(1)">
    <g id="Group_116" data-name="Group 116" transform="translate(-724.5 -229)">
      <g id="Rectangle_56" data-name="Rectangle 56" transform="translate(726 235)" fill="none" stroke="#fff" stroke-width="2">
        <path d="M0,0H15a0,0,0,0,1,0,0V15a2,2,0,0,1-2,2H2a2,2,0,0,1-2-2V0A0,0,0,0,1,0,0Z" stroke="none"/>
        <rect x="1" y="1" width="13" height="15" rx="1" fill="none"/>
      </g>
      <line id="Line_34" data-name="Line 34" x2="18" transform="translate(724.5 236)" fill="none" stroke="#fff" stroke-linecap="round" stroke-width="2"/>
      <g id="Rectangle_57" data-name="Rectangle 57" transform="translate(729 229)" fill="none" stroke="#fff" stroke-width="2">
        <path d="M2,0H7A2,2,0,0,1,9,2V8A0,0,0,0,1,9,8H0A0,0,0,0,1,0,8V2A2,2,0,0,1,2,0Z" stroke="none"/>
        <rect x="1" y="1" width="7" height="6" rx="1" fill="none"/>
      </g>
      <line id="Line_35" data-name="Line 35" y2="8" transform="translate(730.5 239.5)" fill="none" stroke="#fff" stroke-width="1"/>
      <line id="Line_36" data-name="Line 36" y2="8" transform="translate(736.5 239.5)" fill="none" stroke="#fff" stroke-width="1"/>
      <line id="Line_37" data-name="Line 37" y2="8" transform="translate(733.5 239.5)" fill="none" stroke="#fff" stroke-width="1"/>
    </g>
  </g>
</svg>
