<svg width="22" height="38" viewBox="0 0 22 38" fill="none" xmlns="http://www.w3.org/2000/svg">
<path d="M9.4 37.6V33.2C7.64 33.0667 5.97333 32.7467 4.4 32.24C2.85333 31.7067 1.50667 30.9733 0.36 30.04L1.92 26C3.17333 26.9333 4.54667 27.6533 6.04 28.16C7.53333 28.6667 9.17333 28.92 10.96 28.92C12.9067 28.92 14.3333 28.5733 15.24 27.88C16.1467 27.1867 16.6 26.32 16.6 25.28C16.6 24.3467 16.2933 23.6 15.68 23.04C15.0667 22.48 13.9733 22.0267 12.4 21.68L8.16 20.76C5.76 20.2267 3.94667 19.3467 2.72 18.12C1.52 16.8667 0.92 15.2133 0.92 13.16C0.92 10.92 1.68 9.04 3.2 7.52C4.74667 5.97333 6.81333 5.04 9.4 4.72V0.199998H13.4V4.68C14.7867 4.81333 16.1333 5.14667 17.44 5.68C18.7467 6.21333 19.8533 6.93333 20.76 7.84L19.24 11.68C17.2133 9.81333 14.6267 8.88 11.48 8.88C9.82667 8.88 8.49333 9.26667 7.48 10.04C6.49333 10.7867 6 11.7733 6 13C6 13.9067 6.30667 14.64 6.92 15.2C7.53333 15.76 8.52 16.1867 9.88 16.48L14.12 17.4C16.68 17.96 18.5733 18.8533 19.8 20.08C21.0533 21.28 21.68 22.88 21.68 24.88C21.68 27.12 20.9067 28.96 19.36 30.4C17.84 31.8133 15.8533 32.7067 13.4 33.08V37.6H9.4Z" fill="white"/>
</svg>
