<svg xmlns="http://www.w3.org/2000/svg" width="21.64" height="22.857" viewBox="0 0 21.64 22.857">
  <g id="Group_292" data-name="Group 292" transform="translate(-496 -519.003)">
    <path id="Union_10" data-name="Union 10" d="M1.222,2.084V7.325H0V0H7.33V1.219H2.087L9.424,8.556l-.866.862Z" transform="translate(496 519.003)" fill="#fff"/>
    <path id="Union_11" data-name="Union 11" d="M1.222,7.334V2.093H0V9.418H7.33V8.2H2.087L9.424.862,8.558,0Z" transform="translate(496 532.442)" fill="#fff"/>
    <path id="Union_12" data-name="Union 12" d="M1.222,7.334V2.093H0V9.418H7.33V8.2H2.087L9.424.862,8.558,0Z" transform="translate(517.64 528.422) rotate(180)" fill="#fff"/>
    <path id="Union_13" data-name="Union 13" d="M1.222,2.084v5.24H0V0H7.33V1.219H2.087L9.424,8.556l-.866.862Z" transform="translate(517.64 541.86) rotate(180)" fill="#fff"/>
  </g>
</svg>
