<svg width="27" height="31" viewBox="0 0 27 31" fill="none" xmlns="http://www.w3.org/2000/svg">
<rect x="2.5" y="25.2285" width="22" height="5" rx="1.5" stroke="#EBC57A"/>
<rect y="15.7891" width="1.5" height="13.8037" transform="rotate(-45 0 15.7891)" fill="#EBC57A"/>
<rect x="25.7598" y="14.7285" width="1.5" height="13.8037" transform="rotate(45 25.7598 14.7285)" fill="#EBC57A"/>
<g clip-path="url(#clip0_2110_785)">
<path d="M14.884 20.0585C15.5225 19.42 15.5225 18.3847 14.884 17.7462C14.2455 17.1077 13.2103 17.1077 12.5718 17.7462C11.9333 18.3847 11.9333 19.42 12.5718 20.0585C13.2103 20.697 14.2455 20.697 14.884 20.0585Z" fill="#EBC57A"/>
<path d="M5.47595 12.9609L6.97679 14.4618C10.705 10.7336 16.7508 10.7336 20.479 14.4618L21.9798 12.9609C17.4243 8.4054 10.0315 8.4054 5.47595 12.9609V12.9609ZM8.47762 15.9626L9.97845 17.4634C12.0467 15.3952 15.409 15.3952 17.4773 17.4634L18.9782 15.9626C16.0773 13.0617 11.3785 13.0617 8.47762 15.9626V15.9626Z" fill="#EBC57A"/>
</g>
<defs>
<clipPath id="clip0_2110_785">
<rect width="18" height="18" fill="white" transform="translate(1 12.7285) rotate(-45)"/>
</clipPath>
</defs>
</svg>
