<svg id="Component_25_6" data-name="Component 25 – 6" xmlns="http://www.w3.org/2000/svg" width="31.999" height="32.003" viewBox="0 0 31.999 32.003">
  <path id="Subtraction_27" data-name="Subtraction 27" d="M18935.943,8135.794h-5.641v-1.221h3.555l-3.789-3.79.865-.865,3.789,3.79V8129.8h1.221v5.992Z" transform="translate(-18923.508 -8124.795)" fill="#fff"/>
  <path id="Subtraction_31" data-name="Subtraction 31" d="M5.875,0H.234V1.221H3.789L0,5.011l.865.865,3.789-3.79V5.993H5.875V0Z" transform="translate(6.563 21.006)" fill="#fff"/>
  <path id="Subtraction_35" data-name="Subtraction 35" d="M5.875,0H.234V1.221H3.789L0,5.011l.865.865,3.789-3.79V5.993H5.875V0Z" transform="translate(25.438 10.999) rotate(180)" fill="#fff"/>
  <path id="Subtraction_39" data-name="Subtraction 39" d="M5.875,5.993H.234V4.771H3.789L0,.981.865.117l3.789,3.79V0H5.875V5.992Z" transform="translate(25.438 26.999) rotate(180)" fill="#fff"/>
  <path id="Subtraction_41" data-name="Subtraction 41" d="M18950.936,8158h-4.434v-.971h3.463a8.006,8.006,0,0,0,8-7.995V8146.5h.971v3.507A8.007,8.007,0,0,1,18950.936,8158Zm-12.434,0h-3.564a8.007,8.007,0,0,1-8-7.995V8146.5h.971v2.537a8,8,0,0,0,7.994,7.995h2.6v.97Zm20.434-19.5h-.971v-3.526a8.011,8.011,0,0,0-8-8h-3.463V8126h4.434a8.012,8.012,0,0,1,8,8v4.5Zm-31.027,0h-.971V8134a8.012,8.012,0,0,1,8-8h3.564v.971h-2.6a8.008,8.008,0,0,0-7.994,8v3.525Z" transform="translate(-18926.938 -8125.998)" fill="#fff"/>
</svg>
