<svg width="27" height="19" viewBox="0 0 27 19" fill="none" xmlns="http://www.w3.org/2000/svg">
<path d="M6.82115 17.1474C5.27728 17.1474 3.79665 16.5607 2.70497 15.5165C1.6133 14.4723 1 13.056 1 11.5793C1 10.1026 1.6133 8.68631 2.70497 7.64209C3.79665 6.59788 5.27728 6.01125 6.82115 6.01125C7.18577 4.38683 8.25246 2.95932 9.78655 2.04273C10.5462 1.58888 11.3976 1.27413 12.2924 1.11645C13.1872 0.958769 14.1077 0.961244 15.0014 1.12373C15.8951 1.28623 16.7445 1.60555 17.501 2.06347C18.2576 2.5214 18.9066 3.10896 19.4108 3.7926C19.9151 4.47624 20.2648 5.24258 20.44 6.04787C20.6152 6.85315 20.6125 7.68161 20.4319 8.48594H21.6693C22.8179 8.48594 23.9194 8.94221 24.7316 9.75437C25.5437 10.5665 26 11.6681 26 12.8166C26 13.9652 25.5437 15.0668 24.7316 15.8789C23.9194 16.6911 22.8179 17.1474 21.6693 17.1474H6.82115Z" stroke="#EBC57A" stroke-width="2" stroke-linecap="round" stroke-linejoin="round"/>
</svg>
