<svg width="25" height="25" viewBox="0 0 25 25" fill="none" xmlns="http://www.w3.org/2000/svg">
<path d="M12.5 21.875C17.6777 21.875 21.875 17.6777 21.875 12.5C21.875 7.32233 17.6777 3.125 12.5 3.125C7.32233 3.125 3.125 7.32233 3.125 12.5C3.125 17.6777 7.32233 21.875 12.5 21.875Z" stroke="#EBC57A" stroke-linecap="round" stroke-linejoin="round"/>
<path d="M3.75 9.375H21.25" stroke="#EBC57A" stroke-linecap="round" stroke-linejoin="round"/>
<path d="M3.75 15.625H21.25" stroke="#EBC57A" stroke-linecap="round" stroke-linejoin="round"/>
<path d="M11.9821 3.125C10.2272 5.9371 9.29688 9.18528 9.29688 12.5C9.29688 15.8147 10.2272 19.0629 11.9821 21.875" stroke="#EBC57A" stroke-linecap="round" stroke-linejoin="round"/>
<path d="M13.0234 3.125C14.7783 5.9371 15.7086 9.18528 15.7086 12.5C15.7086 15.8147 14.7783 19.0629 13.0234 21.875" stroke="#EBC57A" stroke-linecap="round" stroke-linejoin="round"/>
</svg>
