<svg xmlns="http://www.w3.org/2000/svg" width="71.5" height="48.922" viewBox="0 0 71.5 48.922">
  <g id="Component_109_39" data-name="Component 109 – 39" transform="translate(0 0)">
    <g id="Group_858" data-name="Group 858" transform="translate(-551.969 -465.449)">
      <g id="Union_115" data-name="Union 115" transform="translate(12013.969 -7028.549)" fill="none">
        <path d="M-11422.557,7542.826h-21.568a17.757,17.757,0,0,1-17.875-17.633,17.753,17.753,0,0,1,17.675-17.633,20.616,20.616,0,0,1,19.447-13.562,20.511,20.511,0,0,1,20.587,19.049,15,15,0,0,1,13.791,14.861,15.022,15.022,0,0,1-15.125,14.918h-16.711c-.061.061-.1.094-.1.094Z" stroke="none"/>
        <path d="M -11405.625 7540.82568359375 C -11402.11328125 7540.82568359375 -11398.8134765625 7539.478515625 -11396.333984375 7537.0322265625 C -11393.861328125 7534.59375 -11392.5 7531.35302734375 -11392.5 7527.90771484375 C -11392.5 7524.66064453125 -11393.728515625 7521.55712890625 -11395.9580078125 7519.16845703125 C -11398.1826171875 7516.78662109375 -11401.203125 7515.3203125 -11404.462890625 7515.0390625 L -11406.177734375 7514.89111328125 L -11406.287109375 7513.173828125 C -11406.5830078125 7508.529296875 -11408.6455078125 7504.2060546875 -11412.0927734375 7501.00048828125 C -11415.5625 7497.7744140625 -11420.103515625 7495.99755859375 -11424.8779296875 7495.99755859375 C -11428.810546875 7495.99755859375 -11432.5693359375 7497.1904296875 -11435.748046875 7499.44677734375 C -11437.2783203125 7500.533203125 -11438.6298828125 7501.8369140625 -11439.7646484375 7503.32177734375 C -11440.91015625 7504.82080078125 -11441.8115234375 7506.4736328125 -11442.4423828125 7508.23486328125 L -11442.912109375 7509.54443359375 L -11444.3037109375 7509.5595703125 C -11448.51171875 7509.60498046875 -11452.4580078125 7511.2548828125 -11455.41796875 7514.205078125 C -11458.373046875 7517.150390625 -11460 7521.05224609375 -11460 7525.1923828125 C -11460 7529.3623046875 -11458.3515625 7533.28466796875 -11455.359375 7536.23681640625 C -11452.359375 7539.19580078125 -11448.3701171875 7540.82568359375 -11444.125 7540.82568359375 L -11405.625 7540.82568359375 M -11422.43359375 7542.91943359375 C -11422.43359375 7542.91943359375 -11422.4765625 7542.88671875 -11422.556640625 7542.82568359375 C -11422.6611328125 7542.82568359375 -11422.7177734375 7542.82568359375 -11422.7177734375 7542.82568359375 C -11425.4033203125 7542.82568359375 -11435.625 7542.82568359375 -11444.125 7542.82568359375 C -11453.9951171875 7542.82568359375 -11462 7534.93017578125 -11462 7525.1923828125 C -11462 7515.5205078125 -11454.10546875 7507.6650390625 -11444.3251953125 7507.5595703125 C -11441.4921875 7499.6591796875 -11433.8564453125 7493.99755859375 -11424.8779296875 7493.99755859375 C -11413.923828125 7493.99755859375 -11404.9697265625 7502.416015625 -11404.291015625 7513.04638671875 C -11396.560546875 7513.712890625 -11390.5 7520.11181640625 -11390.5 7527.90771484375 C -11390.5 7536.14599609375 -11397.26953125 7542.82568359375 -11405.625 7542.82568359375 C -11412.947265625 7542.82568359375 -11420.56640625 7542.82568359375 -11422.3359375 7542.82568359375 C -11422.396484375 7542.88671875 -11422.43359375 7542.91943359375 -11422.43359375 7542.91943359375 Z" stroke="none" fill="#ebc57a"/>
      </g>
    </g>
  </g>
</svg>
