<svg id="Component_109_40" data-name="Component 109 – 40" xmlns="http://www.w3.org/2000/svg" width="64" height="64.343" viewBox="0 0 64 64.343">
  <g id="Group_859" data-name="Group 859" transform="translate(-539 -526)">
    <g id="Group_855" data-name="Group 855">
      <g id="Ellipse_112" data-name="Ellipse 112" transform="translate(539 526)" fill="none" stroke="#ebc57a" stroke-width="2">
        <circle cx="32" cy="32" r="32" stroke="none"/>
        <circle cx="32" cy="32" r="31" fill="none"/>
      </g>
      <line id="Line_143" data-name="Line 143" x2="62" transform="translate(540.5 558.5)" fill="none" stroke="#ebc57a" stroke-width="2"/>
      <line id="Line_144" data-name="Line 144" x2="62" transform="translate(571.5 527.5) rotate(90)" fill="none" stroke="#ebc57a" stroke-width="2"/>
      <path id="Path_273" data-name="Path 273" d="M0,0S12.218,5.327,24.461,5.327,48.972,0,48.972,0" transform="translate(546.528 540)" fill="none" stroke="#ebc57a" stroke-width="2"/>
      <path id="Path_274" data-name="Path 274" d="M0,5.327S12.218,0,24.461,0,48.972,5.327,48.972,5.327" transform="translate(546.528 571)" fill="none" stroke="#ebc57a" stroke-width="2"/>
      <path id="Path_275" data-name="Path 275" d="M0,0S7.242,14.25,29.423,15.258A37.443,37.443,0,0,0,62,0" transform="translate(571.5 527.5) rotate(90)" fill="none" stroke="#ebc57a" stroke-width="2"/>
      <path id="Path_276" data-name="Path 276" d="M0,15.3S7.242,1.053,29.423.045A37.443,37.443,0,0,1,62,15.3" transform="translate(586.5 527.5) rotate(90)" fill="none" stroke="#ebc57a" stroke-width="2"/>
    </g>
  </g>
</svg>
