<svg width="65" height="32" viewBox="0 0 65 32" fill="none" xmlns="http://www.w3.org/2000/svg">
<path d="M11.968 24.1262L10.2466 14.4075L12.0112 14.095L13.7325 23.8137L11.968 24.1262ZM15.6797 23.4688L14.4858 16.7277L16.1676 16.4298L16.3531 17.4775C16.5145 17.0509 16.7703 16.7022 17.1205 16.4317C17.4799 16.1595 17.9031 15.9803 18.3902 15.894C19.9801 15.6124 20.9387 16.3952 21.2658 18.2425L21.9935 22.3505L20.2703 22.6557L19.5573 18.6304C19.4645 18.1065 19.2959 17.743 19.0514 17.5399C18.8161 17.3351 18.4916 17.2694 18.0781 17.3426C17.5726 17.4322 17.1967 17.6646 16.9504 18.04C16.7116 18.4046 16.6387 18.8488 16.7315 19.3726L17.4029 23.1636L15.6797 23.4688ZM31.6883 20.7755C30.3557 21.0116 29.2745 20.8476 28.4448 20.2837C27.6226 19.7089 27.091 18.7415 26.8501 17.3813L25.8344 11.6466L27.5989 11.334L28.6122 17.055C28.7669 17.9281 29.0808 18.5502 29.5542 18.9213C30.035 19.2816 30.6569 19.3943 31.4197 19.2591C32.9728 18.9841 33.5948 17.9734 33.2855 16.2273L32.2722 10.5063L34.0229 10.1962L35.0387 15.931C35.2796 17.2911 35.1173 18.3815 34.5517 19.202C33.9845 20.0134 33.03 20.5379 31.6883 20.7755ZM40.1288 19.2805C39.559 19.3815 39.0138 19.407 38.4931 19.357C37.9724 19.307 37.5238 19.1827 37.1474 18.984L37.3883 17.7754C37.7691 17.945 38.1822 18.0566 38.6277 18.1104C39.0716 18.155 39.505 18.1399 39.9277 18.065C40.3689 17.9869 40.6821 17.8555 40.8674 17.6711C41.0603 17.4758 41.1348 17.254 41.0908 17.0059C41.0225 16.6199 40.6936 16.4222 40.1043 16.4129L38.6794 16.3951C37.4731 16.3813 36.7821 15.8781 36.6063 14.8855C36.5282 14.4444 36.5801 14.0418 36.7621 13.6779C36.9532 13.3122 37.2493 13.0039 37.6503 12.7528C38.0514 12.5016 38.5322 12.3264 39.0928 12.2271C39.5707 12.1425 40.0424 12.13 40.5079 12.1897C40.9719 12.2403 41.3837 12.3711 41.7433 12.5823L41.4749 13.7957C41.1693 13.6224 40.8167 13.5047 40.4171 13.4428C40.0267 13.3792 39.6615 13.3776 39.3214 13.4378C38.8711 13.5176 38.5495 13.6551 38.3566 13.8504C38.1729 14.0441 38.1038 14.2696 38.1494 14.5269C38.221 14.9313 38.5269 15.133 39.067 15.1321L40.492 15.1499C41.1089 15.1544 41.595 15.2768 41.9504 15.5172C42.3149 15.7559 42.5412 16.1234 42.6291 16.6197C42.7479 17.2906 42.5796 17.8654 42.1241 18.3442C41.667 18.8138 41.0019 19.1259 40.1288 19.2805ZM47.7147 17.9369C46.9519 18.072 46.2696 18.046 45.6677 17.8587C45.0658 17.6715 44.5668 17.3428 44.1708 16.8727C43.7839 16.4009 43.527 15.8066 43.4 15.0898C43.2763 14.3913 43.3105 13.755 43.5026 13.1806C43.7039 12.6047 44.0312 12.1249 44.4846 11.7413C44.9456 11.3469 45.5023 11.0919 46.1548 10.9763C47.1106 10.807 47.9179 10.9768 48.5768 11.4857C49.2448 11.993 49.6716 12.7704 49.8572 13.8181L49.9475 14.3282L45.1226 15.1828C45.4645 16.3639 46.2604 16.8438 47.5103 16.6224C47.8871 16.5557 48.2541 16.4338 48.6114 16.2568C48.967 16.0706 49.2791 15.8257 49.5476 15.5222L50.2352 16.5948C49.9608 16.9183 49.5938 17.2013 49.1344 17.4438C48.675 17.6863 48.2018 17.8507 47.7147 17.9369ZM46.4313 12.1359C45.9258 12.2254 45.5445 12.4541 45.2874 12.8219C45.0303 13.1897 44.9167 13.6458 44.9468 14.1902L48.338 13.5896C48.202 13.0355 47.97 12.6358 47.6423 12.3906C47.322 12.1345 46.9184 12.0496 46.4313 12.1359ZM51.6879 17.091L51.3485 15.1748L53.2785 14.833L53.6179 16.7492L51.6879 17.091ZM55.1074 16.4854L54.768 14.5692L56.6979 14.2273L57.0373 16.1435L55.1074 16.4854Z" fill="#C4C4C4"/>
<rect x="1.18891" y="11.0145" width="59.806" height="19.7792" rx="9.88959" transform="rotate(-10.0441 1.18891 11.0145)" stroke="#949494"/>
</svg>
