<svg width="128" height="128" viewBox="0 0 128 128" fill="none" xmlns="http://www.w3.org/2000/svg">
<path d="M64.0026 80.0013C69.8936 80.0013 74.6693 75.2257 74.6693 69.3346C74.6693 63.4436 69.8936 58.668 64.0026 58.668C58.1116 58.668 53.3359 63.4436 53.3359 69.3346C53.3359 75.2257 58.1116 80.0013 64.0026 80.0013Z" stroke="#36BBE5" stroke-width="4" stroke-linecap="round" stroke-linejoin="round"/>
<path d="M71.7358 61.6013L82.6692 50.668" stroke="#36BBE5" stroke-width="4" stroke-linecap="round" stroke-linejoin="round"/>
<path d="M34.1333 106.666C26.3368 100.47 20.6609 92.0009 17.8922 82.4342C15.1234 72.8675 15.399 62.6765 18.6808 53.2734C21.9625 43.8703 28.0878 35.7209 36.2079 29.9544C44.328 24.188 54.0407 21.0901 64 21.0901C73.9593 21.0901 83.672 24.188 91.7921 29.9544C99.9122 35.7209 106.037 43.8703 109.319 53.2734C112.601 62.6765 112.877 72.8675 110.108 82.4342C107.339 92.0009 101.663 100.47 93.8667 106.666H34.1333Z" stroke="#36BBE5" stroke-width="4" stroke-linecap="round" stroke-linejoin="round"/>
</svg>
