<svg xmlns="http://www.w3.org/2000/svg" width="27.998" height="28.003" viewBox="0 0 27.998 28.003">
  <path id="Subtraction_48" data-name="Subtraction 48" d="M20667.15-6963h-4.3v-2.351a11.758,11.758,0,0,1-1.811-.483l-1.174,2.029-3.73-2.154,1.172-2.034a11.491,11.491,0,0,1-1.312-1.324l-2.035,1.178-2.152-3.731,2.029-1.173a12.029,12.029,0,0,1-.48-1.811H20651v-4.308h2.352a12.414,12.414,0,0,1,.482-1.8l-2.029-1.173,2.152-3.731,2.035,1.173a11.836,11.836,0,0,1,1.318-1.323l-1.178-2.04,3.73-2.154,1.184,2.04a11.533,11.533,0,0,1,1.8-.483V-6991h4.3v2.351a12.052,12.052,0,0,1,1.8.483l1.178-2.04,3.736,2.154-1.184,2.04a12.732,12.732,0,0,1,1.33,1.329l2.033-1.178,2.16,3.721-2.045,1.178a11.934,11.934,0,0,1,.482,1.806H20679v4.308h-2.355a11.592,11.592,0,0,1-.479,1.806l2.041,1.178-2.16,3.731-2.033-1.178a12.687,12.687,0,0,1-1.324,1.324l1.178,2.034-3.736,2.154-1.168-2.034a11.964,11.964,0,0,1-1.811.488v2.35ZM20665-6985.19a8.2,8.2,0,0,0-8.2,8.189,8.2,8.2,0,0,0,8.2,8.195,8.2,8.2,0,0,0,8.189-8.195A8.2,8.2,0,0,0,20665-6985.19Z" transform="translate(-20651 6991.002)" fill="#0674f9"/>
</svg>
