<svg width="19" height="23" viewBox="0 0 19 23" fill="none" xmlns="http://www.w3.org/2000/svg">
<path d="M15.5106 16.3689L11.0024 21.1695C10.6039 21.5934 10.0637 21.8314 9.50053 21.8314C8.93732 21.8314 8.39714 21.5934 7.99869 21.1695L3.48944 16.3689C2.30074 15.103 1.49124 13.4902 1.1633 11.7345C0.835358 9.97869 1.00371 8.15879 1.64707 6.50491C2.29043 4.85102 3.37989 3.43742 4.7777 2.44287C6.17551 1.44832 7.81888 0.91748 9.5 0.91748C11.1811 0.91748 12.8245 1.44832 14.2223 2.44287C15.6201 3.43742 16.7096 4.85102 17.3529 6.50491C17.9963 8.15879 18.1646 9.97869 17.8367 11.7345C17.5088 13.4902 16.6993 15.103 15.5106 16.3689Z" fill="#A4A4A4" stroke="#2E2E2E" stroke-linecap="round" stroke-linejoin="round"/>
<path d="M9.49833 13.2203C11.5102 13.2203 13.1412 11.5679 13.1412 9.52956C13.1412 7.49125 11.5102 5.83887 9.49833 5.83887C7.48643 5.83887 5.85547 7.49125 5.85547 9.52956C5.85547 11.5679 7.48643 13.2203 9.49833 13.2203Z" fill="white" stroke="#2E2E2E" stroke-linecap="round" stroke-linejoin="round"/>
</svg>
