<svg id="Component_93_155" data-name="Component 93 – 155" xmlns="http://www.w3.org/2000/svg" width="40" height="32" viewBox="0 0 40 32">
  <g id="Group_599" data-name="Group 599" transform="translate(-1826 -159)">
    <g id="Subtraction_2" data-name="Subtraction 2" transform="translate(-6447.009 -18908)" fill="#0774f9">
      <path d="M 8292.9931640625 19093.115234375 C 8292.212890625 19092.2890625 8290.373046875 19090.2578125 8288.6025390625 19087.658203125 C 8287.2578125 19085.68359375 8286.220703125 19083.78125 8285.5224609375 19081.998046875 C 8284.662109375 19079.806640625 8284.3203125 19077.806640625 8284.5048828125 19076.052734375 L 8284.5078125 19076.025390625 L 8284.5078125 19076 C 8284.5078125 19071.3125 8288.3203125 19067.5 8293.0068359375 19067.5 C 8297.693359375 19067.5 8301.505859375 19071.3125 8301.5068359375 19075.998046875 C 8301.4873046875 19077.830078125 8301.0146484375 19079.884765625 8300.1015625 19082.107421875 C 8299.3623046875 19083.904296875 8298.337890625 19085.810546875 8297.056640625 19087.76953125 C 8295.4013671875 19090.30078125 8293.70703125 19092.3046875 8292.9931640625 19093.115234375 Z M 8293.0068359375 19069.5 C 8289.4228515625 19069.5 8286.5078125 19072.416015625 8286.5078125 19076 C 8286.5078125 19079.583984375 8289.4228515625 19082.5 8293.0068359375 19082.5 C 8296.5908203125 19082.5 8299.5068359375 19079.583984375 8299.5068359375 19076 C 8299.5068359375 19072.416015625 8296.5908203125 19069.5 8293.0068359375 19069.5 Z" stroke="none"/>
      <path d="M 8292.9814453125 19092.3671875 C 8293.80078125 19091.41015625 8295.2236328125 19089.658203125 8296.6376953125 19087.49609375 C 8297.90234375 19085.5625 8298.912109375 19083.685546875 8299.6396484375 19081.916015625 C 8300.52734375 19079.755859375 8300.98828125 19077.763671875 8301.0068359375 19075.994140625 C 8301.00390625 19071.5859375 8297.416015625 19068 8293.0068359375 19068 C 8288.595703125 19068 8285.0078125 19071.587890625 8285.0078125 19076 L 8285.0078125 19076.052734375 L 8285.001953125 19076.10546875 C 8284.826171875 19077.779296875 8285.1572265625 19079.701171875 8285.9873046875 19081.81640625 C 8286.6728515625 19083.5625 8287.69140625 19085.43359375 8289.015625 19087.376953125 C 8290.5263671875 19089.59375 8292.0869140625 19091.392578125 8292.9814453125 19092.3671875 M 8293.0068359375 19069 C 8296.8662109375 19069 8300.0068359375 19072.140625 8300.0068359375 19076 C 8300.0068359375 19079.859375 8296.8662109375 19083 8293.0068359375 19083 C 8289.1474609375 19083 8286.0078125 19079.859375 8286.0078125 19076 C 8286.0078125 19072.140625 8289.1474609375 19069 8293.0068359375 19069 M 8293.0068359375 19093.849609375 L 8293.005859375 19093.84765625 C 8292.9052734375 19093.74609375 8290.498046875 19091.328125 8288.189453125 19087.939453125 C 8286.822265625 19085.93359375 8285.7685546875 19083.99609375 8285.056640625 19082.181640625 C 8284.1669921875 19079.9140625 8283.814453125 19077.833984375 8284.0078125 19076 C 8284.0078125 19071.037109375 8288.044921875 19067 8293.0068359375 19067 C 8297.9697265625 19067 8302.0068359375 19071.037109375 8302.0068359375 19076 C 8301.9873046875 19077.896484375 8301.501953125 19080.015625 8300.564453125 19082.296875 C 8299.8125 19084.125 8298.7724609375 19086.05859375 8297.474609375 19088.04296875 C 8295.2724609375 19091.41015625 8293.0283203125 19093.826171875 8293.0078125 19093.84765625 L 8293.0068359375 19093.849609375 Z M 8293.0068359375 19070 C 8289.69921875 19070 8287.0078125 19072.69140625 8287.0078125 19076 C 8287.0078125 19079.30859375 8289.69921875 19082 8293.0068359375 19082 C 8296.3154296875 19082 8299.0068359375 19079.30859375 8299.0068359375 19076 C 8299.0068359375 19072.69140625 8296.3154296875 19070 8293.0068359375 19070 Z" stroke="none" fill="#0774f8"/>
    </g>
    <g id="Path_32" data-name="Path 32" transform="translate(1826 175)" fill="none">
      <path d="M3.353,0H35.987L40,16H0Z" stroke="none"/>
      <path d="M 4.977348327636719 2 L 2.462577819824219 14 L 37.43647766113281 14 L 34.42695236206055 2 L 4.977348327636719 2 M 3.353031158447266 0 L 35.98730087280273 0 L 40 16 L 0 16 L 3.353031158447266 0 Z" stroke="none" fill="#0774f8"/>
    </g>
  </g>
</svg>
