<svg width="20" height="19" viewBox="0 0 20 19" fill="none" xmlns="http://www.w3.org/2000/svg">
<path d="M1.90234 1L18.1023 17.2" stroke="#C4C4C4" stroke-width="2" stroke-linecap="round" stroke-linejoin="round"/>
<path d="M8.72894 7.82806C8.39118 8.16558 8.20134 8.62344 8.20117 9.10093C8.201 9.57841 8.39052 10.0364 8.72804 10.3742C9.06555 10.7119 9.52341 10.9018 10.0009 10.9019C10.4784 10.9021 10.9364 10.7126 11.2741 10.3751" stroke="#C4C4C4" stroke-width="2" stroke-linecap="round" stroke-linejoin="round"/>
<path d="M14.8213 13.9135C13.3534 14.9035 11.7478 15.3994 10 15.3994C6.4 15.3994 3.4003 13.2997 1 9.09937C2.2321 6.94387 3.6217 5.34187 5.1688 4.29247M7.6267 3.12787C8.39838 2.90712 9.19738 2.79653 10 2.79937C13.6 2.79937 16.5997 4.89907 19 9.09937C18.2998 10.3243 17.5492 11.371 16.7473 12.2386L7.6267 3.12787Z" stroke="#C4C4C4" stroke-width="2" stroke-linecap="round" stroke-linejoin="round"/>
</svg>
