<svg id="Component_42_109" data-name="Component 42 – 109" xmlns="http://www.w3.org/2000/svg" width="32" height="32" viewBox="0 0 32 32">
  <g id="Group_284" data-name="Group 284">
    <g id="Group_78" data-name="Group 78" transform="translate(-676 -365.5)">
      <g id="Group_2" data-name="Group 2" transform="translate(676 365.5)">
        <rect id="Rectangle_8" data-name="Rectangle 8" width="32" height="32" fill="#ff0219"/>
        <g id="Union_1" data-name="Union 1" transform="translate(5.333 5.333)" fill="#ff0219">
          <path d="M 16.56688117980957 21.89968109130859 L 5.833760738372803 21.89968109130859 L 5.833760738372803 18.1334400177002 L 5.833760738372803 17.6334400177002 L 5.333760738372803 17.6334400177002 L 2.633120536804199 17.6334400177002 L 2.633120536804199 14.93376064300537 L 2.633120536804199 14.43376064300537 L 2.133120536804199 14.43376064300537 L 0.500000536441803 14.43376064300537 L 0.500000536441803 0.500000536441803 L 21.89968109130859 0.500000536441803 L 21.89968109130859 14.43376064300537 L 20.26655960083008 14.43376064300537 L 19.76655960083008 14.43376064300537 L 19.76655960083008 14.93376064300537 L 19.76655960083008 17.6334400177002 L 17.06688117980957 17.6334400177002 L 16.56688117980957 17.6334400177002 L 16.56688117980957 18.1334400177002 L 16.56688117980957 21.89968109130859 Z" stroke="none"/>
          <path d="M 16.06688117980957 21.39968109130859 L 16.06688117980957 17.1334400177002 L 19.26655960083008 17.1334400177002 L 19.26655960083008 13.93376064300537 L 21.39968109130859 13.93376064300537 L 21.39968109130859 1.000000596046448 L 1.000000596046448 1.000000596046448 L 1.000000596046448 13.93376064300537 L 3.133120536804199 13.93376064300537 L 3.133120536804199 17.1334400177002 L 6.333760738372803 17.1334400177002 L 6.333760738372803 21.39968109130859 L 16.06688117980957 21.39968109130859 M 17.06688117980957 22.39968109130859 L 5.333760738372803 22.39968109130859 L 5.333760738372803 18.1334400177002 L 2.133120536804199 18.1334400177002 L 2.133120536804199 14.93376064300537 L 5.456543021864491e-07 14.93376064300537 L 5.456543021864491e-07 5.456543021864491e-07 L 22.39968109130859 5.456543021864491e-07 L 22.39968109130859 14.93376064300537 L 20.26655960083008 14.93376064300537 L 20.26655960083008 18.1334400177002 L 17.06688117980957 18.1334400177002 L 17.06688117980957 22.39968109130859 Z" stroke="none" fill="#fff"/>
        </g>
      </g>
    </g>
  </g>
</svg>
