<svg xmlns="http://www.w3.org/2000/svg" width="48.486" height="46.838" viewBox="0 0 48.486 46.838">
  <g id="Group_631" data-name="Group 631" transform="translate(-431.514 -653.838)">
    <path id="Subtraction_54" data-name="Subtraction 54" d="M16737.275,7493.418h-5.072v-2.776a12.967,12.967,0,0,1-2.133-.568l-1.375,2.4-4.4-2.541,1.383-2.4a12.9,12.9,0,0,1-1.547-1.552l-2.4,1.379-2.545-4.4,2.4-1.384a12.447,12.447,0,0,1-.572-2.132h-2.775v-5.081h2.775c.061-.327.113-.58.172-.818a9.208,9.208,0,0,0,1.813.179c.256,0,.516-.011.771-.032a11.421,11.421,0,0,0,16.191,13.369l.014.011a9.478,9.478,0,0,0,.18,4.172c.025.088.051.175.078.262l-.826-1.44a14.128,14.128,0,0,1-2.133.568v2.771h0Zm9.863-14.018h0l-1.072-1a11.67,11.67,0,0,0,.1-1.49,11.43,11.43,0,0,0-13.641-11.211,9.393,9.393,0,0,0-.191-4.115c-.039-.138-.08-.274-.127-.417v-.748h5.072v2.763a13.6,13.6,0,0,1,2.121.581l1.387-2.41,4.4,2.54-1.393,2.4a13.663,13.663,0,0,1,1.561,1.564l2.41-1.384,2.535,4.383-2.41,1.384a13.031,13.031,0,0,1,.572,2.132h2.781v4.907a9.16,9.16,0,0,0-1.773-.173,9.378,9.378,0,0,0-2.332.3Zm-22.576-15.039v0l-.27-.467.4-.231a2.092,2.092,0,0,1-.131.7Z" transform="translate(-16280.484 -6799.162)" fill="#fff"/>
    <path id="Union_103" data-name="Union 103" d="M20662.637-6940.565a3.359,3.359,0,0,0,.053-.57V-6947a3.2,3.2,0,0,0-3.191-3.19,3.189,3.189,0,0,0-3.184,3.19v5.867a3.085,3.085,0,0,0,.051.57,8.4,8.4,0,0,1-3.859-2.951,7.874,7.874,0,0,1-1.5-4.632,8.118,8.118,0,0,1,4.248-7.068v-21.135a8.119,8.119,0,0,1-4.248-7.068,7.9,7.9,0,0,1,1.5-4.637,8.438,8.438,0,0,1,3.859-2.952,3.109,3.109,0,0,0-.051.576v5.867a3.189,3.189,0,0,0,3.184,3.19,3.2,3.2,0,0,0,3.191-3.19v-5.867a3.535,3.535,0,0,0-.053-.576,8.428,8.428,0,0,1,3.859,2.952,7.929,7.929,0,0,1,1.5,4.637,8.115,8.115,0,0,1-4.248,7.067v21.137a8.114,8.114,0,0,1,4.248,7.067,7.9,7.9,0,0,1-1.5,4.632,8.465,8.465,0,0,1-3.859,2.957Z" transform="translate(-8539.537 20537.313) rotate(-47)" fill="#fff"/>
  </g>
</svg>
