<svg width="64" height="30" viewBox="0 0 64 30" fill="none" xmlns="http://www.w3.org/2000/svg">
<path d="M20.896 24.16C20.0107 24.16 19.248 23.9947 18.608 23.664C17.968 23.3333 17.472 22.864 17.12 22.256C16.7787 21.648 16.608 20.928 16.608 20.096C16.608 19.2853 16.7733 18.576 17.104 17.968C17.4453 17.36 17.9093 16.8853 18.496 16.544C19.0933 16.192 19.7707 16.016 20.528 16.016C21.6373 16.016 22.512 16.368 23.152 17.072C23.8027 17.776 24.128 18.736 24.128 19.952V20.544H18.528C18.6773 21.9413 19.4773 22.64 20.928 22.64C21.3653 22.64 21.8027 22.576 22.24 22.448C22.6773 22.3093 23.0773 22.096 23.44 21.808L24 23.152C23.6267 23.4613 23.1573 23.7067 22.592 23.888C22.0267 24.0693 21.4613 24.16 20.896 24.16ZM20.608 17.376C20.0213 17.376 19.5467 17.5573 19.184 17.92C18.8213 18.2827 18.6027 18.7733 18.528 19.392H22.464C22.4213 18.7413 22.24 18.2453 21.92 17.904C21.6107 17.552 21.1733 17.376 20.608 17.376ZM25.7119 24V16.176H27.6639V17.552C28.0479 16.624 28.8692 16.112 30.1279 16.016L30.7359 15.968L30.8639 17.664L29.7119 17.776C28.3999 17.904 27.7439 18.576 27.7439 19.792V24H25.7119ZM31.8495 14.496V12.544H34.0895V14.496H31.8495ZM31.9775 24V16.176H33.9775V24H31.9775ZM41.6396 14.496V12.544H43.8636V14.496H41.6396ZM36.5836 24V17.68H35.0796V16.176H36.5836V16.16C36.5836 15.0507 36.8716 14.2133 37.4476 13.648C38.0343 13.0827 38.941 12.7627 40.1676 12.688L40.8716 12.656L40.9676 14.128L40.3436 14.16C39.7036 14.2027 39.2503 14.3627 38.9836 14.64C38.717 14.9067 38.5836 15.3067 38.5836 15.84V16.176H43.7516V24H41.7516V17.68H38.5836V24H36.5836ZM49.6929 24.16C48.8075 24.16 48.0449 23.9947 47.4049 23.664C46.7649 23.3333 46.2689 22.864 45.9169 22.256C45.5755 21.648 45.4049 20.928 45.4049 20.096C45.4049 19.2853 45.5702 18.576 45.9009 17.968C46.2422 17.36 46.7062 16.8853 47.2929 16.544C47.8902 16.192 48.5675 16.016 49.3249 16.016C50.4342 16.016 51.3089 16.368 51.9489 17.072C52.5995 17.776 52.9249 18.736 52.9249 19.952V20.544H47.3249C47.4742 21.9413 48.2742 22.64 49.7249 22.64C50.1622 22.64 50.5995 22.576 51.0369 22.448C51.4742 22.3093 51.8742 22.096 52.2369 21.808L52.7969 23.152C52.4235 23.4613 51.9542 23.7067 51.3889 23.888C50.8235 24.0693 50.2582 24.16 49.6929 24.16ZM49.4049 17.376C48.8182 17.376 48.3435 17.5573 47.9809 17.92C47.6182 18.2827 47.3995 18.7733 47.3249 19.392H51.2609C51.2182 18.7413 51.0369 18.2453 50.7169 17.904C50.4075 17.552 49.9702 17.376 49.4049 17.376ZM57.5168 24.16C56.8341 24.16 56.2314 23.9947 55.7088 23.664C55.1968 23.3333 54.7968 22.864 54.5088 22.256C54.2208 21.6373 54.0768 20.912 54.0768 20.08C54.0768 19.2373 54.2208 18.5173 54.5088 17.92C54.7968 17.312 55.1968 16.8427 55.7088 16.512C56.2314 16.1813 56.8341 16.016 57.5168 16.016C58.0714 16.016 58.5728 16.1387 59.0208 16.384C59.4688 16.6293 59.8048 16.9547 60.0288 17.36V12.72H62.0288V24H60.0768V22.704C59.8634 23.152 59.5274 23.5093 59.0688 23.776C58.6101 24.032 58.0928 24.16 57.5168 24.16ZM58.0768 22.64C58.6741 22.64 59.1541 22.4267 59.5168 22C59.8794 21.5627 60.0608 20.9227 60.0608 20.08C60.0608 19.2267 59.8794 18.592 59.5168 18.176C59.1541 17.7493 58.6741 17.536 58.0768 17.536C57.4794 17.536 56.9994 17.7493 56.6368 18.176C56.2741 18.592 56.0928 19.2267 56.0928 20.08C56.0928 20.9227 56.2741 21.5627 56.6368 22C56.9994 22.4267 57.4794 22.64 58.0768 22.64Z" fill="#09BD7C"/>
<path d="M1.4153 7.00563L9.49148 19.9998L22.4912 0.999816" stroke="#09BD7C" stroke-width="3"/>
</svg>
