<svg xmlns="http://www.w3.org/2000/svg" width="32.188" height="34.24" viewBox="0 0 32.188 34.24">
  <g id="Group_622" data-name="Group 622" transform="translate(-21.715 -448)">
    <path id="Path_227" data-name="Path 227" d="M-16690.285-6980.166l2.924-2.136,6.471,9.191-2.984,2.35Z" transform="translate(16712 7453)" fill="#0674f9"/>
    <path id="Path_228" data-name="Path 228" d="M-16686-6982.873l5.332,7.713s3.6-.015,5.451-4.514,1.98-6.476,4.289-8.511,4.457-4.62,2.771-6.088-3.875,1.421-3.875,1.421l-2.729,3.237-4.789,2.237v-1.179l3.594-1.95-.932-5.53-2.662.829a2.615,2.615,0,0,0-1.527,1.187C-16681.561-6993.1-16686-6982.873-16686-6982.873Z" transform="translate(16712 7453)" fill="#0674f9"/>
    <path id="Union_93" data-name="Union 93" d="M16714,7468a2,2,0,0,1-2-2v-11a2,2,0,0,1,2-2h14a2,2,0,0,1,2,2v11a2,2,0,0,1-2,2Zm.117-3.141a1,1,0,0,0,1,1h11.766a1,1,0,0,0,1-1v-3.288h-13.768Zm13.768-7.575v-1.142a1,1,0,0,0-1-1h-11.766a1,1,0,0,0-1,1v1.142Z" transform="translate(-17461.516 -4910.569) rotate(-7)" fill="#0674f9"/>
    <path id="Path_229" data-name="Path 229" d="M-16672.895-6983.667s2.574.015,3.453-1.817a3.176,3.176,0,0,0,.156-2.979,13.249,13.249,0,0,0-2.568,2.6A11.653,11.653,0,0,0-16672.895-6983.667Z" transform="translate(16712 7453)" fill="#0674f9"/>
    <path id="Path_230" data-name="Path 230" d="M-16672.895-6985.953s2.414.008,3.238-.951.146-1.559.146-1.559a11.843,11.843,0,0,0-2.408,1.363A5.506,5.506,0,0,0-16672.895-6985.953Z" transform="translate(15412.711 9979.59) rotate(9)" fill="#0674f9"/>
    <path id="Path_231" data-name="Path 231" d="M-16672.895-6985.953s2.414.008,3.238-.951.146-1.559.146-1.559a11.843,11.843,0,0,0-2.408,1.363A5.506,5.506,0,0,0-16672.895-6985.953Z" transform="matrix(0.978, 0.208, -0.208, 0.978, 14892.67, 10773.238)" fill="#0674f9"/>
  </g>
</svg>
